<?xml version="1.0" standalone="no"?>
<!DOCTYPE svg PUBLIC "-//W3C//DTD SVG 20010904//EN"
 "http://www.w3.org/TR/2001/REC-SVG-20010904/DTD/svg10.dtd">
<svg version="1.0" xmlns="http://www.w3.org/2000/svg"
 width="368.000000pt" height="368.000000pt" viewBox="0 0 368.000000 368.000000"
 preserveAspectRatio="xMidYMid meet">
<metadata>
Created by potrace 1.14, written by Peter Selinger 2001-2017
</metadata>
<g transform="translate(0.000000,368.000000) scale(0.100000,-0.100000)"
fill="#000000" stroke="none">
<path d="M1760 3603 c-58 -19 -129 -54 -226 -112 -61 -36 -155 -91 -208 -121
-53 -30 -144 -83 -203 -117 -58 -35 -107 -63 -110 -63 -3 0 -40 -21 -82 -47
-42 -26 -98 -59 -126 -73 -85 -46 -337 -194 -391 -230 -31 -21 -65 -56 -87
-90 -69 -107 -68 -93 -68 -620 0 -261 -1 -587 -2 -725 -3 -253 3 -345 25 -400
21 -53 77 -133 110 -159 34 -26 215 -136 224 -136 2 0 49 -27 103 -60 55 -33
101 -60 104 -60 3 0 56 -30 119 -67 62 -36 154 -90 203 -118 50 -29 124 -72
165 -96 41 -24 95 -54 120 -68 25 -13 84 -48 132 -77 129 -78 190 -103 272
-108 58 -4 151 20 216 56 105 58 310 177 338 196 15 10 47 28 72 40 25 13 63
34 85 47 22 14 69 41 105 62 36 20 101 57 145 84 44 26 107 62 140 79 33 18
67 38 75 45 8 7 44 28 80 47 99 52 210 121 232 143 37 36 108 157 118 199 6
24 10 350 10 782 0 808 2 781 -59 895 -32 62 -84 105 -216 180 -49 29 -130 75
-180 104 -49 29 -136 79 -193 111 -56 33 -154 89 -217 127 -63 37 -116 67
-119 67 -2 0 -51 28 -110 63 -370 218 -388 227 -501 226 -44 0 -87 -3 -95 -6z"/>
</g>
</svg>
